HIERARCHY
ROOT Hips
{
  OFFSET 0 93.5 0
  CHANNELS 6 Xposition Yposition Zposition Zrotation Xrotation Yrotation
  JOINT Spine
  {
    OFFSET 0 8 0
    CHANNELS 6 Xposition Yposition Zposition Zrotation Xrotation Yrotation
    JOINT Spine1
    {
      OFFSET 0 8 0
      CHANNELS 6 Xposition Yposition Zposition Zrotation Xrotation Yrotation
      JOINT Spine2
      {
        OFFSET 0 8 0
        CHANNELS 6 Xposition Yposition Zposition Zrotation Xrotation Yrotation
        JOINT Spine3
        {
          OFFSET 0 8 0
          CHANNELS 6 Xposition Yposition Zposition Zrotation Xrotation Yrotation
          JOINT Neck
          {
            OFFSET 0 17 0
            CHANNELS 6 Xposition Yposition Zposition Zrotation Xrotation Yrotation
            JOINT Head
            {
              OFFSET 0 10.8 0
              CHANNELS 6 Xposition Yposition Zposition Zrotation Xrotation Yrotation
              End Site
              {
                OFFSET 0 20.25 0
              }
            }
          }
          JOINT LeftShoulder
          {
            OFFSET 5 17 0
            CHANNELS 6 Xposition Yposition Zposition Zrotation Xrotation Yrotation
            JOINT LeftShoulder2
            {
              OFFSET 6.45 0 0
              CHANNELS 6 Xposition Yposition Zposition Zrotation Xrotation Yrotation
              JOINT LeftArm
              {
                OFFSET 6.45 0 0
                CHANNELS 6 Xposition Yposition Zposition Zrotation Xrotation Yrotation
                JOINT LeftForeArm
                {
                  OFFSET 0 -32.4 -2
                  CHANNELS 6 Xposition Yposition Zposition Zrotation Xrotation Yrotation
                  JOINT LeftHand
                  {
                    OFFSET 0 -25.65 2
                    CHANNELS 6 Xposition Yposition Zposition Zrotation Xrotation Yrotation
                    JOINT LeftHandThumb1
                    {
                      OFFSET -0.5 -1.5 2.65
                      CHANNELS 6 Xposition Yposition Zposition Zrotation Xrotation Yrotation
                      JOINT LeftHandThumb2
                      {
                        OFFSET 0 -3.8 3.7
                        CHANNELS 6 Xposition Yposition Zposition Zrotation Xrotation Yrotation
                        JOINT LeftHandThumb3
                        {
                          OFFSET 0 -3 2.7
                          CHANNELS 6 Xposition Yposition Zposition Zrotation Xrotation Yrotation
                          End Site
                          {
                            OFFSET 0 -2.3 1.8
                          }
                        }
                      }
                    }
                    JOINT LeftHandIndex
                    {
                      OFFSET 0 -1.9 1.6
                      CHANNELS 6 Xposition Yposition Zposition Zrotation Xrotation Yrotation
                      JOINT LeftHandIndex1
                      {
                        OFFSET 0 -8.3 1.9
                        CHANNELS 6 Xposition Yposition Zposition Zrotation Xrotation Yrotation
                        JOINT LeftHandIndex2
                        {
                          OFFSET 0 -4.5 0
                          CHANNELS 6 Xposition Yposition Zposition Zrotation Xrotation Yrotation
                          JOINT LeftHandIndex3
                          {
                            OFFSET 0 -3.4 0
                            CHANNELS 6 Xposition Yposition Zposition Zrotation Xrotation Yrotation
                            End Site
                            {
                              OFFSET 0 -2.6 0
                            }
                          }
                        }
                      }
                    }
                    JOINT LeftHandMiddle
                    {
                      OFFSET -0.25 -2.2 0.4
                      CHANNELS 6 Xposition Yposition Zposition Zrotation Xrotation Yrotation
                      JOINT LeftHandMiddle1
                      {
                        OFFSET 0 -8.3 1
                        CHANNELS 6 Xposition Yposition Zposition Zrotation Xrotation Yrotation
                        JOINT LeftHandMiddle2
                        {
                          OFFSET 0 -4.65 0
                          CHANNELS 6 Xposition Yposition Zposition Zrotation Xrotation Yrotation
                          JOINT LeftHandMiddle3
                          {
                            OFFSET 0 -3.3 0
                            CHANNELS 6 Xposition Yposition Zposition Zrotation Xrotation Yrotation
                            End Site
                            {
                              OFFSET 0 -2.7 0
                            }
                          }
                        }
                      }
                    }
                    JOINT LeftHandRing
                    {
                      OFFSET -0.5 -2.15 -0.8
                      CHANNELS 6 Xposition Yposition Zposition Zrotation Xrotation Yrotation
                      JOINT LeftHandRing1
                      {
                        OFFSET 0 -7.75 -0.2
                        CHANNELS 6 Xposition Yposition Zposition Zrotation Xrotation Yrotation
                        JOINT LeftHandRing2
                        {
                          OFFSET 0 -3.8 0
                          CHANNELS 6 Xposition Yposition Zposition Zrotation Xrotation Yrotation
                          JOINT LeftHandRing3
                          {
                            OFFSET 0 -3.4 0
                            CHANNELS 6 Xposition Yposition Zposition Zrotation Xrotation Yrotation
                            End Site
                            {
                              OFFSET 0 -2.6 0
                            }
                          }
                        }
                      }
                    }
                    JOINT LeftHandPinky
                    {
                      OFFSET -0.75 -1.75 -1.85
                      CHANNELS 6 Xposition Yposition Zposition Zrotation Xrotation Yrotation
                      JOINT LeftHandPinky1
                      {
                        OFFSET 0 -7.15 -1
                        CHANNELS 6 Xposition Yposition Zposition Zrotation Xrotation Yrotation
                        JOINT LeftHandPinky2
                        {
                          OFFSET 0 -3 0
                          CHANNELS 6 Xposition Yposition Zposition Zrotation Xrotation Yrotation
                          JOINT LeftHandPinky3
                          {
                            OFFSET 0 -2.35 0
                            CHANNELS 6 Xposition Yposition Zposition Zrotation Xrotation Yrotation
                            End Site
                            {
                              OFFSET 0 -2.1 0
                            }
                          }
                        }
                      }
                    }
                  }
                }
              }
            }
          }
          JOINT RightShoulder
          {
            OFFSET -5 17 0
            CHANNELS 6 Xposition Yposition Zposition Zrotation Xrotation Yrotation
            JOINT RightShoulder2
            {
              OFFSET -6.45 0 0
              CHANNELS 6 Xposition Yposition Zposition Zrotation Xrotation Yrotation
              JOINT RightArm
              {
                OFFSET -6.45 0 0
                CHANNELS 6 Xposition Yposition Zposition Zrotation Xrotation Yrotation
                JOINT RightForeArm
                {
                  OFFSET 0 -32.4 -2
                  CHANNELS 6 Xposition Yposition Zposition Zrotation Xrotation Yrotation
                  JOINT RightHand
                  {
                    OFFSET 0 -25.65 2
                    CHANNELS 6 Xposition Yposition Zposition Zrotation Xrotation Yrotation
                    JOINT RightHandThumb1
                    {
                      OFFSET 0.5 -1.5 2.65
                      CHANNELS 6 Xposition Yposition Zposition Zrotation Xrotation Yrotation
                      JOINT RightHandThumb2
                      {
                        OFFSET 0 -3.8 3.7
                        CHANNELS 6 Xposition Yposition Zposition Zrotation Xrotation Yrotation
                        JOINT RightHandThumb3
                        {
                          OFFSET 0 -3 2.7
                          CHANNELS 6 Xposition Yposition Zposition Zrotation Xrotation Yrotation
                          End Site
                          {
                            OFFSET 0 -2.3 1.8
                          }
                        }
                      }
                    }
                    JOINT RightHandIndex
                    {
                      OFFSET 0 -1.9 1.6
                      CHANNELS 6 Xposition Yposition Zposition Zrotation Xrotation Yrotation
                      JOINT RightHandIndex1
                      {
                        OFFSET 0 -8.3 1.9
                        CHANNELS 6 Xposition Yposition Zposition Zrotation Xrotation Yrotation
                        JOINT RightHandIndex2
                        {
                          OFFSET 0 -4.5 0
                          CHANNELS 6 Xposition Yposition Zposition Zrotation Xrotation Yrotation
                          JOINT RightHandIndex3
                          {
                            OFFSET 0 -3.4 0
                            CHANNELS 6 Xposition Yposition Zposition Zrotation Xrotation Yrotation
                            End Site
                            {
                              OFFSET 0 -2.6 0
                            }
                          }
                        }
                      }
                    }
                    JOINT RightHandMiddle
                    {
                      OFFSET 0.25 -2.2 0.4
                      CHANNELS 6 Xposition Yposition Zposition Zrotation Xrotation Yrotation
                      JOINT RightHandMiddle1
                      {
                        OFFSET 0 -8.3 1
                        CHANNELS 6 Xposition Yposition Zposition Zrotation Xrotation Yrotation
                        JOINT RightHandMiddle2
                        {
                          OFFSET 0 -4.65 0
                          CHANNELS 6 Xposition Yposition Zposition Zrotation Xrotation Yrotation
                          JOINT RightHandMiddle3
                          {
                            OFFSET 0 -3.3 0
                            CHANNELS 6 Xposition Yposition Zposition Zrotation Xrotation Yrotation
                            End Site
                            {
                              OFFSET 0 -2.7 0
                            }
                          }
                        }
                      }
                    }
                    JOINT RightHandRing
                    {
                      OFFSET 0.5 -2.15 -0.8
                      CHANNELS 6 Xposition Yposition Zposition Zrotation Xrotation Yrotation
                      JOINT RightHandRing1
                      {
                        OFFSET 0 -7.75 -0.2
                        CHANNELS 6 Xposition Yposition Zposition Zrotation Xrotation Yrotation
                        JOINT RightHandRing2
                        {
                          OFFSET 0 -3.8 0
                          CHANNELS 6 Xposition Yposition Zposition Zrotation Xrotation Yrotation
                          JOINT RightHandRing3
                          {
                            OFFSET 0 -3.4 0
                            CHANNELS 6 Xposition Yposition Zposition Zrotation Xrotation Yrotation
                            End Site
                            {
                              OFFSET 0 -2.6 0
                            }
                          }
                        }
                      }
                    }
                    JOINT RightHandPinky
                    {
                      OFFSET 0.75 -1.75 -1.85
                      CHANNELS 6 Xposition Yposition Zposition Zrotation Xrotation Yrotation
                      JOINT RightHandPinky1
                      {
                        OFFSET 0 -7.15 -1
                        CHANNELS 6 Xposition Yposition Zposition Zrotation Xrotation Yrotation
                        JOINT RightHandPinky2
                        {
                          OFFSET 0 -3 0
                          CHANNELS 6 Xposition Yposition Zposition Zrotation Xrotation Yrotation
                          JOINT RightHandPinky3
                          {
                            OFFSET 0 -2.35 0
                            CHANNELS 6 Xposition Yposition Zposition Zrotation Xrotation Yrotation
                            End Site
                            {
                              OFFSET 0 -2.1 0
                            }
                          }
                        }
                      }
                    }
                  }
                }
              }
            }
          }
        }
      }
    }
  }
  JOINT LeftUpLeg
  {
    OFFSET 8 0 0
    CHANNELS 6 Xposition Yposition Zposition Zrotation Xrotation Yrotation
    JOINT LeftLeg
    {
      OFFSET 0 -45 -1
      CHANNELS 6 Xposition Yposition Zposition Zrotation Xrotation Yrotation
      JOINT LeftFoot
      {
        OFFSET 0 -41 -2
        CHANNELS 6 Xposition Yposition Zposition Zrotation Xrotation Yrotation
        JOINT LeftToeBase
        {
          OFFSET 0 -7.5 12.5
          CHANNELS 6 Xposition Yposition Zposition Zrotation Xrotation Yrotation
          JOINT LeftFootToe
          {
            OFFSET 0 0 4
            CHANNELS 6 Xposition Yposition Zposition Zrotation Xrotation Yrotation
            End Site
            {
              OFFSET 0 0 0
            }
          }
        }
      }
    }
  }
  JOINT RightUpLeg
  {
    OFFSET -8 0 0
    CHANNELS 6 Xposition Yposition Zposition Zrotation Xrotation Yrotation
    JOINT RightLeg
    {
      OFFSET 0 -45 -1
      CHANNELS 6 Xposition Yposition Zposition Zrotation Xrotation Yrotation
      JOINT RightFoot
      {
        OFFSET 0 -41 -2
        CHANNELS 6 Xposition Yposition Zposition Zrotation Xrotation Yrotation
        JOINT RightToeBase
        {
          OFFSET 0 -7.5 12.5
          CHANNELS 6 Xposition Yposition Zposition Zrotation Xrotation Yrotation
          JOINT RightFootToe
          {
            OFFSET 0 0 4
            CHANNELS 6 Xposition Yposition Zposition Zrotation Xrotation Yrotation
            End Site
            {
              OFFSET 0 0 0
            }
          }
        }
      }
    }
  }
}
MOTION
Frames:	3
Frame Time:	0.0111111
-289.177 91.7358 815.104 5.37325 1.65217 170.282 -2.84217e-14 8 1.13687e-13 5.90245 -2.04271 -3.83443 -2.84217e-14 8 1.13687e-13 -0.548437 2.13571 1.28808 -2.84217e-14 8 0 -0.26452 1.06965 0.641453 2.84217e-14 8 -1.13687e-13 -0.264454 1.06939 0.641291 0 17 0 1.14318 -9.17197 5.73692 -2.84217e-14 10.8 0 2.31494 -12.2262 13.5133 5 17 0 1.53016 -3.11882 0.907616 6.45 0 0 -0.725682 -0.371951 0.604502 6.45 -2.84217e-14 1.13687e-13 24.9641 -19.4706 15.858 0 -32.4 -2 -54.8285 -35.1498 -46.1055 0 -25.65 2 6.0607 -11.6748 -19.7019 -0.5 -1.5 2.65 6.15221 7.85961 -19.8805 0 -3.8 3.7 -0.536858 14.4824 -0.0114366 5.68434e-14 -3 2.7 -0.0690159 -3.18713 0.0687139 0 -1.9 1.6 3.18055e-15 1.59028e-15 -2.38542e-15 0 -8.3 1.9 -8.33717 21.1164 2.12478 2.84217e-14 -4.5 5.68434e-14 -3.61003e-07 -0.00545844 -0.00378935 5.68434e-14 -3.4 0 -3.94969e-07 -0.00514974 -0.00439441 -0.25 -2.2 0.4 3.18055e-15 1.59028e-15 -2.38542e-15 0 -8.3 1 -6.25596 17.22 1.42759 2.84217e-14 -4.65 0 0.00108565 -0.000502369 0.000694341 5.68434e-14 -3.3 0 0.00108555 -0.000497982 0.000679802 -0.5 -2.15 -0.8 3.18055e-15 1.59028e-15 -2.38542e-15 0 -7.75 -0.2 -4.41332 13.1895 0.908048 -2.84217e-14 -3.8 0 -2.96978e-07 0.0047918 0.00355098 1.13687e-13 -3.4 -2.84217e-14 -4.19003e-07 0.00693432 0.00346207 -0.75 -1.75 -1.85 3.18055e-15 1.59028e-15 -2.38542e-15 5.68434e-14 -7.15 -1 -2.91388 14.4027 0.811638 -5.68434e-14 -3 0 0.000576461 -0.000364635 -0.000286708 0 -2.35 0 0.000577236 -0.000362937 -0.000285005 -5 17 0 0.506588 -3.33232 3.08747 -6.45 2.84217e-14 -1.13687e-13 -1.72824 1.24644 -2.57565 -6.45 0 0 -11.4964 13.2718 -13.3482 -5.68434e-14 -32.4 -2 64.1633 -25.4827 87.5113 -1.13687e-13 -25.65 2 -12.0503 3.42992 12.3695 0.5 -1.5 2.65 2.10805 -7.74161 -0.787461 0 -3.8 3.7 0.193152 24.2169 -0.0747552 0 -3 2.7 0.00879114 -0.0332021 -0.0118054 0 -1.9 1.6 -6.36111e-15 -1.59028e-15 -4.77083e-15 0 -8.3 1.9 16.9711 12.3496 -2.0154 0 -4.5 -5.68434e-14 5.76714e-08 0.00196091 -0.0016851 0 -3.4 5.68434e-14 5.69323e-08 0.00184133 -0.00177153 0.25 -2.2 0.4 -6.36111e-15 -1.59028e-15 -4.77083e-15 0 -8.3 1 32.6146 10.6279 -4.50543 0 -4.65 0 75.9407 0.00368559 0.00599341 0 -3.3 -5.68434e-14 59.5096 0.00507947 -0.000800436 0.5 -2.15 -0.8 -6.36111e-15 -1.59028e-15 -4.77083e-15 0 -7.75 -0.2 58.1606 0.892689 -4.57316 0 -3.8 -5.68434e-14 49.4159 0.000893364 0.000220608 5.68434e-14 -3.4 -2.84217e-14 34.0998 0.000933144 -0.00179093 0.75 -1.75 -1.85 -6.36111e-15 -1.59028e-15 -4.77083e-15 1.13687e-13 -7.15 -1 72.214 -3.46851 -4.61583 0 -3 0 6.93808 0.000941893 0.00274728 1.13687e-13 -2.35 -5.68434e-14 6.33491 0.00126236 0.00520809 8 0 0 17.4276 -22.5939 -3.32778 -5.68434e-14 -45 -1 0.650184 23.549 -4.13962 0 -41 -2 -1.4198 -9.80388 5.599 2.84217e-14 -7.5 12.5 1.98785e-15 -1.59028e-15 -1.59028e-15 0 0 4 7.39161 0.86961 46.5779 -8 2.84217e-14 1.13687e-13 5.54543 -9.68664 -8.24316 0 -45 -1 0.0291082 15.8836 -0.442737 5.68434e-14 -41 -2 -2.26982 -3.88029 -0.934713 -5.68434e-14 -7.5 12.5 -1.84419e-18 3.88251e-19 -0 1.13687e-13 -6.93889e-18 4 4.34944 -3.56747 11.2713 
-289.197 91.7356 815.133 5.37333 1.6466 170.263 5.68434e-14 8 0 5.91023 -2.02715 -3.83579 2.84217e-14 8 0 -0.550236 2.13034 1.30103 0 8 -1.13687e-13 -0.264335 1.06689 0.647926 -2.84217e-14 8 1.13687e-13 -0.264269 1.06663 0.647761 0 17 0 1.1333 -9.14634 5.72279 0 10.8 1.13687e-13 2.26141 -12.2661 13.4819 5 17 1.13687e-13 1.48803 -3.13362 0.924487 6.45 -2.84217e-14 0 -0.725691 -0.372151 0.608813 6.45 0 0 24.9836 -19.5816 15.97 -5.68434e-14 -32.4 -2 -54.7877 -35.1722 -46.2529 -5.68434e-14 -25.65 2 6.75295 -11.8831 -19.8004 -0.5 -1.5 2.65 5.51563 8.53666 -20.3016 2.84217e-14 -3.8 3.7 -0.635884 13.2708 -0.0206841 0 -3 2.7 -0.0800584 -3.85152 0.0815117 0 -1.9 1.6 -3.18055e-15 -3.18055e-15 6.36111e-15 0 -8.3 1.9 -8.30768 21.0804 2.11739 5.68434e-14 -4.5 2.84217e-14 -3.59037e-07 -0.00544895 -0.00377528 0 -3.4 0 -3.9373e-07 -0.00514158 -0.00438757 -0.25 -2.2 0.4 -3.18055e-15 -3.18055e-15 6.36111e-15 0 -8.3 1 -6.2731 17.2932 1.44114 -2.84217e-14 -4.65 2.84217e-14 0.00108394 -0.000501574 0.000693242 5.68434e-14 -3.3 -2.84217e-14 0.00108383 -0.000497195 0.000678727 -0.5 -2.15 -0.8 -3.18055e-15 -3.18055e-15 6.36111e-15 0 -7.75 -0.2 -4.54522 13.4685 0.95431 2.84217e-14 -3.8 -1.42109e-14 0.0107002 0.00480136 0.00354322 2.84217e-14 -3.4 1.42109e-14 0.0105023 0.00696636 0.00345449 -0.75 -1.75 -1.85 -3.18055e-15 -3.18055e-15 6.36111e-15 0 -7.15 -1 -3.08956 14.8139 0.876557 5.68434e-14 -3 2.84217e-14 0.000575522 -0.000365238 -0.000287182 0 -2.35 2.84217e-14 0.000576295 -0.000363536 -0.000285476 -5 17 0 0.489244 -3.27844 3.15847 -6.45 0 -1.13687e-13 -1.72785 1.24673 -2.57586 -6.45 0 0 -11.5538 13.195 -13.3046 0 -32.4 -2 64.2448 -25.4701 87.57 0 -25.65 2 -12.1117 3.37746 12.4196 0.5 -1.5 2.65 2.1024 -7.76279 -0.825548 1.13687e-13 -3.8 3.7 0.191076 24.1833 -0.0738687 1.13687e-13 -3 2.7 0.00870008 -0.0355399 -0.0118044 0 -1.9 1.6 -3.18055e-15 -1.59028e-15 -6.36111e-15 0 -8.3 1.9 17.1709 12.3659 -2.04231 0 -4.5 0 5.78163e-08 0.00196339 -0.0016872 1.13687e-13 -3.4 0 5.70756e-08 0.00184366 -0.00177375 0.25 -2.2 0.4 -3.18055e-15 -1.59028e-15 -6.36111e-15 -1.13687e-13 -8.3 1 32.7122 10.661 -4.52738 2.27374e-13 -4.65 -5.68434e-14 75.9391 0.00364074 0.00599974 0 -3.3 0 59.5074 0.00502332 -0.000780586 0.5 -2.15 -0.8 -3.18055e-15 -1.59028e-15 -6.36111e-15 0 -7.75 -0.2 58.2074 0.922106 -4.59348 0 -3.8 -2.84217e-14 49.369 0.000855598 0.000365579 0 -3.4 0 34.0676 0.000877923 -0.0017975 0.75 -1.75 -1.85 -3.18055e-15 -1.59028e-15 -6.36111e-15 0 -7.15 -1 72.2665 -3.45133 -4.63879 0 -3 2.84217e-14 6.86987 0.000900421 0.00274845 0 -2.35 0 6.27775 0.00123995 0.00517368 8 0 0 17.4246 -22.6316 -3.31375 0 -45 -1 0.651985 23.586 -4.13999 -8.52651e-14 -41 -2 -1.42097 -9.80096 5.59467 2.84217e-14 -7.5 12.5 -1.59028e-15 1.59028e-15 -0 0 0 4 7.38732 0.87204 46.5751 -8 0 -1.13687e-13 5.54124 -9.70682 -8.23375 -2.84217e-14 -45 -1 0.0289848 15.8714 -0.442495 0 -41 -2 -2.26307 -3.84992 -0.934752 0 -7.5 12.5 6.7944e-19 7.76503e-19 -3.18055e-15 0 -6.93889e-18 4 4.35825 -3.57691 11.2719 
-289.213 91.7355 815.159 5.37348 1.64249 170.259 2.84217e-14 8 0 5.91335 -2.01216 -3.84198 -2.84217e-14 8 0 -0.551046 2.12493 1.3102 0 8 -1.13687e-13 -0.26412 1.06415 0.652913 0 8 0 -0.264055 1.0639 0.652749 -2.84217e-14 17 0 1.11714 -9.1201 5.70509 0 10.8 0 2.21294 -12.2981 13.4421 5 17 0 1.44996 -3.14746 0.940119 6.45 0 0 -0.725676 -0.372342 0.613506 6.45 0 -1.13687e-13 24.9887 -19.6956 16.0074 5.68434e-14 -32.4 -2 -54.6849 -35.2401 -46.3701 5.68434e-14 -25.65 2 7.36124 -12.1246 -19.9831 -0.5 -1.5 2.65 4.92698 9.21015 -20.7015 0 -3.8 3.7 -0.726255 12.1069 -0.0282188 2.84217e-14 -3 2.7 -0.0869635 -4.49578 0.0961986 -5.68434e-14 -1.9 1.6 -5.95877e-31 4.77083e-15 7.15625e-15 0 -8.3 1.9 -8.3103 21.0848 2.12089 0 -4.5 0 -3.57082e-07 -0.00543943 -0.00376129 -5.68434e-14 -3.4 0 -3.9249e-07 -0.00513338 -0.00438075 -0.25 -2.2 0.4 -5.95877e-31 4.77083e-15 7.15625e-15 0 -8.3 1 -6.326 17.3961 1.46261 -2.84217e-14 -4.65 0 0.00108222 -0.000500777 0.00069214 0 -3.3 0 0.00108211 -0.000496404 0.000677648 -0.5 -2.15 -0.8 -5.95877e-31 4.77083e-15 7.15625e-15 0 -7.75 -0.2 -4.74685 13.7853 1.01103 0 -3.8 0 -0.0625596 0.00481066 0.00353548 0 -3.4 -2.84217e-14 -0.0618764 0.0069982 0.00344693 -0.75 -1.75 -1.85 -5.95877e-31 4.77083e-15 7.15625e-15 5.68434e-14 -7.15 -1 -3.34475 15.2839 0.954972 0 -3 2.84217e-14 0.000574579 -0.000365838 -0.000287654 0 -2.35 0 0.000575351 -0.000364134 -0.000285945 -5 17 -1.13687e-13 0.475275 -3.226 3.22776 -6.45 2.84217e-14 0 -1.72742 1.24704 -2.5788 -6.45 0 0 -11.6043 13.1187 -13.262 2.84217e-14 -32.4 -2 64.3105 -25.4496 87.5994 0 -25.65 2 -12.1971 3.32361 12.5159 0.5 -1.5 2.65 2.08599 -7.77717 -0.855782 0 -3.8 3.7 0.188947 24.1615 -0.0727585 -1.13687e-13 -3 2.7 0.00861114 -0.0378251 -0.0118061 -1.13687e-13 -1.9 1.6 -3.18055e-15 1.59028e-15 -7.95139e-15 0 -8.3 1.9 17.345 12.3503 -2.06128 -1.13687e-13 -4.5 1.13687e-13 5.79612e-08 0.00196587 -0.00168929 0 -3.4 -5.68434e-14 5.7219e-08 0.00184599 -0.00177596 0.25 -2.2 0.4 -3.18055e-15 1.59028e-15 -7.95139e-15 -1.13687e-13 -8.3 1 32.7893 10.6868 -4.54442 0 -4.65 0 75.9483 0.00359704 0.0060061 5.68434e-14 -3.3 5.68434e-14 59.5208 0.00496762 -0.000761412 0.5 -2.15 -0.8 -3.18055e-15 1.59028e-15 -7.95139e-15 0 -7.75 -0.2 58.2311 0.955152 -4.61256 0 -3.8 -5.68434e-14 49.3656 0.000818222 0.000508942 0 -3.4 0 34.0654 0.000823511 -0.00180397 0.75 -1.75 -1.85 -3.18055e-15 1.59028e-15 -7.95139e-15 0 -7.15 -1 72.2895 -3.43644 -4.65352 0 -3 -2.84217e-14 6.77444 0.000860481 0.00275045 1.13687e-13 -2.35 -5.68434e-14 6.19795 0.00121761 0.0051395 8 0 0 17.4262 -22.6653 -3.28409 -2.84217e-14 -45 -1 0.652712 23.6096 -4.1399 0 -41 -2 -1.42303 -9.79163 5.59356 5.68434e-14 -7.5 12.5 0 0 -0 -2.84217e-14 0 4 7.387 0.873792 46.5717 -8 0 0 5.53869 -9.72343 -8.2334 0 -45 -1 0.0288526 15.857 -0.442281 0 -41 -2 -2.25867 -3.82144 -0.934119 5.68434e-14 -7.5 12.5 -1.26182e-18 0 -0 5.68434e-14 3.46945e-18 4 4.36229 -3.58672 11.2724 
